<svg width="152" height="42" viewBox="0 0 152 42" fill="none" xmlns="http://www.w3.org/2000/svg"><path d="M0.0268555 6.35597V16.629L28.1856 6.14844L0.0268555 6.35597Z" fill="#00619D"></path><path d="M28.1849 17.6664V6.66699L2.7688 17.7183L28.1849 17.6664Z" fill="#00619D"></path><path d="M28.1588 18.2373L0 19.9754V28.4065V32.3497L28.1849 28.4065H28.1588V18.2373Z" fill="#00619D"></path><path d="M37.1707 6.14844H33.592V28.0953H45.216V24.9045H37.1707V6.14844Z" fill="#00619D"></path><path d="M47.2795 28.095H51.041L53.6009 22.4396H62.3515L64.8592 28.095H68.6468L57.9893 5.29199L47.2795 28.095ZM58.4333 13.3599C58.564 13.775 58.7207 14.1382 58.8513 14.4495L61.1238 19.4563H54.9592L57.2318 14.4495C57.3624 14.1123 57.5191 13.7231 57.6497 13.3081C57.7803 12.893 57.9109 12.452 58.0415 11.9591C58.146 12.5039 58.3027 12.9449 58.4333 13.3599Z" fill="#00619D"></path><path d="M83.9278 12.1924C83.9278 11.1547 83.7189 10.1948 83.3271 9.33875C82.9352 8.48266 82.3867 7.78223 81.7075 7.28933C81.1329 6.9002 80.4798 6.61484 79.7223 6.43325C78.9648 6.25165 77.7893 6.17383 76.1698 6.17383H70.7366V28.1207H74.1062V18.2628H75.4645H76.1698C77.7893 18.2628 78.9648 18.1849 79.7223 18.0034C80.4798 17.8218 81.1329 17.5364 81.7075 17.1473C82.4128 16.6544 82.9352 15.9539 83.3271 15.0719C83.745 14.1899 83.9278 13.23 83.9278 12.1924ZM79.2521 14.6828C78.5991 15.0979 77.2669 15.3313 75.2817 15.3313H74.3674V9.20904H75.2817C77.1885 9.20904 78.4946 9.44251 79.1999 9.93541C79.9052 10.4024 80.2709 11.2325 80.2709 12.3999C80.2447 13.4895 79.9052 14.2418 79.2521 14.6828Z" fill="#00619D"></path><path d="M82.4912 28.095H86.2527L88.8126 22.4396H97.5632L100.071 28.095H103.858L93.1748 5.29199L82.4912 28.095ZM93.645 13.3599C93.7756 13.775 93.9324 14.1382 94.063 14.4495L96.3355 19.4563H90.1709L92.4434 14.4495C92.574 14.1123 92.7308 13.7231 92.8614 13.3081C92.992 12.893 93.1226 12.452 93.2532 11.9591C93.3838 12.5039 93.5144 12.9449 93.645 13.3599Z" fill="#00619D"></path><path d="M117.337 16.3171C118.199 15.3313 118.617 13.9564 118.617 12.1924C118.617 11.1806 118.434 10.2727 118.068 9.44251C117.703 8.61237 117.18 7.91194 116.475 7.3931C115.9 6.95209 115.221 6.64078 114.411 6.45919C113.602 6.2776 112.452 6.17383 110.989 6.17383H105.974V28.1207H109.344V18.2887H109.762L117.102 28.0948H121.151L113.549 18.1071C115.221 17.9255 116.475 17.3289 117.337 16.3171ZM109.553 15.5129V9.20904H110.206C112.008 9.20904 113.262 9.46846 113.915 9.96135C114.594 10.4542 114.908 11.3103 114.908 12.5037C114.908 13.6192 114.594 14.3974 113.967 14.8384C113.34 15.2794 112.087 15.487 110.18 15.487H109.553V15.5129Z" fill="#00619D"></path><path d="M145.705 12.7634C145.104 11.3625 144.268 10.1173 143.145 9.00178C142.022 7.91222 140.742 7.08208 139.331 6.51136C137.895 5.94064 136.406 5.65527 134.812 5.65527C133.219 5.65527 131.704 5.94064 130.267 6.51136C128.83 7.08208 127.55 7.91222 126.427 9.00178C125.304 10.0913 124.442 11.3366 123.867 12.7374C123.293 14.1123 122.979 15.591 122.979 17.1735C122.979 18.756 123.267 20.2346 123.867 21.6096C124.442 22.9845 125.304 24.2297 126.427 25.3193C127.524 26.4088 128.804 27.239 130.241 27.8097C131.678 28.4064 133.193 28.6917 134.786 28.6917C136.353 28.6917 137.842 28.4064 139.279 27.8356C140.716 27.2649 141.996 26.4088 143.119 25.3452C144.242 24.2556 145.104 23.0104 145.679 21.6355C146.279 20.2606 146.567 18.7819 146.567 17.2254C146.593 15.617 146.306 14.1642 145.705 12.7634ZM142.257 20.3125C141.839 21.2983 141.264 22.2062 140.507 22.9845C139.723 23.7627 138.861 24.3594 137.895 24.7745C136.928 25.1896 135.909 25.3971 134.812 25.3971C133.715 25.3971 132.67 25.1896 131.704 24.7745C130.737 24.3594 129.849 23.7627 129.092 22.9845C128.334 22.2062 127.733 21.3242 127.342 20.3384C126.95 19.3526 126.741 18.289 126.741 17.1994C126.741 16.0839 126.95 15.0203 127.342 14.0345C127.733 13.0487 128.334 12.1408 129.092 11.3884C129.849 10.6102 130.737 10.0135 131.704 9.59845C132.67 9.18338 133.715 8.97584 134.812 8.97584C135.909 8.97584 136.928 9.18338 137.921 9.59845C138.913 10.0135 139.775 10.6102 140.507 11.3625C141.264 12.1408 141.865 13.0228 142.257 14.0345C142.675 15.0203 142.858 16.0839 142.858 17.1994C142.858 18.2631 142.649 19.3267 142.257 20.3125Z" fill="#00619D"></path><path d="M34.8457 41.7923L36.0734 33.2314H36.204L39.7043 40.2617L43.1784 33.2314H43.309L44.5367 41.7923H43.7008L42.8388 35.67L39.7826 41.7923H39.5737L36.4913 35.6181L35.6555 41.7923H34.8457Z" fill="#00619D"></path><path d="M51.485 39.6908L52.1641 40.054C51.929 40.495 51.6678 40.8582 51.3805 41.1176C51.0932 41.3771 50.7536 41.5846 50.3879 41.7402C50.0222 41.87 49.6042 41.9478 49.1341 41.9478C48.0892 41.9478 47.2794 41.6105 46.7048 40.936C46.1301 40.2616 45.8167 39.4833 45.8167 38.6532C45.8167 37.849 46.0517 37.1226 46.548 36.5C47.175 35.6958 48.0108 35.3066 49.0818 35.3066C50.1789 35.3066 51.0409 35.7217 51.6939 36.5259C52.1641 37.0966 52.3992 37.823 52.3992 38.6791H46.6525C46.6787 39.4055 46.9137 40.0281 47.3578 40.495C47.828 40.962 48.3765 41.1955 49.0557 41.1955C49.3692 41.1955 49.7087 41.1436 49.9961 41.0398C50.3095 40.936 50.5707 40.7804 50.7797 40.5988C50.9887 40.4172 51.2238 40.1059 51.485 39.6908ZM51.485 37.9787C51.3805 37.5376 51.2238 37.2004 51.0148 36.941C50.8058 36.6816 50.5185 36.474 50.1789 36.3184C49.8393 36.1627 49.4736 36.0849 49.0818 36.0849C48.4549 36.0849 47.9064 36.2924 47.4623 36.6816C47.1227 36.9669 46.8876 37.4079 46.7048 37.9787H51.485Z" fill="#00619D"></path><path d="M60.2879 33.0234V41.7918H59.4781V40.7022C59.1386 41.1173 58.7467 41.4286 58.3288 41.6362C57.9109 41.8437 57.4407 41.9475 56.9182 41.9475C56.004 41.9475 55.2465 41.6102 54.6196 40.9617C53.9927 40.3131 53.6531 39.5089 53.6531 38.601C53.6531 37.693 53.9665 36.9147 54.6196 36.2662C55.2726 35.6176 56.0301 35.3063 56.9444 35.3063C57.4668 35.3063 57.937 35.4101 58.3549 35.6436C58.7729 35.877 59.1386 36.1884 59.4781 36.6294V33.0234H60.2879ZM56.9966 36.0846C56.5525 36.0846 56.1085 36.1884 55.7428 36.4218C55.351 36.6553 55.0375 36.9666 54.8285 37.3557C54.5934 37.7449 54.489 38.1859 54.489 38.6269C54.489 39.0679 54.5934 39.5089 54.8285 39.8981C55.0636 40.2872 55.3771 40.6244 55.7689 40.8579C56.1607 41.0914 56.5787 41.1951 57.0227 41.1951C57.4668 41.1951 57.8847 41.0914 58.3027 40.8579C58.6945 40.6244 59.008 40.3391 59.243 39.9499C59.452 39.5608 59.5565 39.1457 59.5565 38.6528C59.5565 37.9265 59.3214 37.3039 58.8251 36.811C58.3027 36.344 57.7019 36.0846 56.9966 36.0846Z" fill="#00619D"></path><path d="M62.4299 32.8682C62.6127 32.8682 62.7695 32.946 62.9001 33.0757C63.0307 33.2054 63.109 33.3611 63.109 33.5427C63.109 33.7242 63.0307 33.8799 62.9001 34.0096C62.7695 34.1393 62.6127 34.2171 62.4299 34.2171C62.247 34.2171 62.0903 34.1393 61.9597 34.0096C61.8291 33.8799 61.7507 33.7242 61.7507 33.5427C61.7507 33.3611 61.8291 33.2054 61.9597 33.0757C62.0642 32.92 62.247 32.8682 62.4299 32.8682ZM62.0119 35.4624H62.8217V41.7922H62.0119V35.4624Z" fill="#00619D"></path><path d="M70.7103 36.7858L70.0572 37.1749C69.4826 36.4226 68.7251 36.0594 67.7586 36.0594C66.9749 36.0594 66.348 36.3188 65.8256 36.8117C65.3032 37.3046 65.0681 37.9013 65.0681 38.6276C65.0681 39.0946 65.1987 39.5356 65.4338 39.9247C65.6689 40.3398 65.9823 40.6511 66.4003 40.8846C66.8182 41.1181 67.2623 41.2218 67.7847 41.2218C68.7251 41.2218 69.4826 40.8586 70.0834 40.1063L70.7364 40.5214C70.4229 40.9883 70.0311 41.3256 69.5087 41.585C68.9863 41.8444 68.4116 41.9741 67.7586 41.9741C66.7398 41.9741 65.9039 41.6628 65.2509 41.0143C64.5979 40.3657 64.2583 39.6134 64.2583 38.7055C64.2583 38.0829 64.415 37.5121 64.7285 36.9933C65.0419 36.4745 65.4599 36.0594 66.0084 35.774C66.557 35.4887 67.1578 35.333 67.8369 35.333C68.2549 35.333 68.6728 35.3849 69.0646 35.5146C69.4565 35.6443 69.796 35.8 70.0572 36.0075C70.2923 36.1891 70.5274 36.4745 70.7103 36.7858Z" fill="#00619D"></path><path d="M78.6512 35.4623V41.7921H77.8414V40.7026C77.5018 41.1176 77.11 41.4289 76.6921 41.6365C76.2741 41.844 75.8039 41.9478 75.2815 41.9478C74.3673 41.9478 73.6098 41.6105 72.9828 40.962C72.3559 40.3134 72.0164 39.5092 72.0164 38.6013C72.0164 37.6933 72.3298 36.915 72.9828 36.2665C73.6359 35.6179 74.3934 35.3066 75.3076 35.3066C75.8301 35.3066 76.3003 35.4104 76.7182 35.6439C77.1361 35.8774 77.5018 36.1887 77.8414 36.6297V35.4623H78.6512ZM75.3599 36.0849C74.9158 36.0849 74.4718 36.1887 74.1061 36.4221C73.7142 36.6556 73.4008 36.9669 73.1918 37.3561C72.9567 37.7452 72.8522 38.1862 72.8522 38.6272C72.8522 39.0682 72.9567 39.5092 73.1918 39.8984C73.4269 40.3134 73.7404 40.6247 74.1322 40.8582C74.524 41.0917 74.9419 41.1955 75.386 41.1955C75.8301 41.1955 76.248 41.0917 76.6659 40.8582C77.0578 40.6247 77.3712 40.3394 77.6063 39.9503C77.8153 39.5611 77.9198 39.146 77.9198 38.6532C77.9198 37.9268 77.6847 37.3042 77.1884 36.8113C76.6659 36.3443 76.0913 36.0849 75.3599 36.0849Z" fill="#00619D"></path><path d="M80.3752 33.0234H81.185V41.7918H80.3752V33.0234Z" fill="#00619D"></path><path d="M85.4688 40.2094L86.2001 39.7683C86.7226 40.7023 87.3234 41.1692 87.9764 41.1692C88.2637 41.1692 88.5249 41.0914 88.7862 40.9617C89.0474 40.832 89.2302 40.6504 89.3608 40.4169C89.4914 40.1834 89.5698 39.9499 89.5698 39.6905C89.5698 39.4052 89.4653 39.1198 89.2825 38.8604C89.0212 38.4712 88.5249 38.0302 87.7935 37.4855C87.0621 36.9407 86.6181 36.5515 86.4614 36.3181C86.1479 35.903 85.9912 35.4879 85.9912 35.021C85.9912 34.6578 86.0695 34.3205 86.2524 34.0092C86.4352 33.6979 86.6965 33.4645 87.0099 33.2829C87.3234 33.1013 87.6891 33.0234 88.0809 33.0234C88.4988 33.0234 88.8645 33.1272 89.2302 33.3347C89.5959 33.5423 89.9616 33.9055 90.3534 34.4243L89.6482 34.9431C89.3347 34.5281 89.0474 34.2427 88.8123 34.0871C88.5772 33.9573 88.3421 33.8795 88.0548 33.8795C87.7152 33.8795 87.4278 33.9833 87.1928 34.1908C86.9838 34.3984 86.8532 34.6578 86.8532 34.9691C86.8532 35.1507 86.9054 35.3323 86.9838 35.5139C87.0621 35.6955 87.1928 35.8771 87.4017 36.0846C87.5062 36.1884 87.898 36.4737 88.5249 36.9407C89.2825 37.4854 89.7788 37.9783 90.0661 38.3934C90.3534 38.8085 90.484 39.2495 90.484 39.6905C90.484 40.3131 90.249 40.8579 89.7788 41.2989C89.3086 41.7659 88.7339 41.9734 88.0548 41.9734C87.5323 41.9734 87.0622 41.8437 86.6442 41.5583C86.2001 41.3249 85.8083 40.8579 85.4688 40.2094Z" fill="#00619D"></path><path d="M92.4694 32.8682C92.6523 32.8682 92.809 32.946 92.9396 33.0757C93.0702 33.2054 93.1486 33.3611 93.1486 33.5427C93.1486 33.7242 93.0702 33.8799 92.9396 34.0096C92.809 34.1393 92.6523 34.2171 92.4694 34.2171C92.2866 34.2171 92.1299 34.1393 91.9993 34.0096C91.8687 33.8799 91.7903 33.7242 91.7903 33.5427C91.7903 33.3611 91.8687 33.2054 91.9993 33.0757C92.1299 32.92 92.2866 32.8682 92.4694 32.8682ZM92.0776 35.4624H92.8874V41.7922H92.0776V35.4624Z" fill="#00619D"></path><path d="M94.5852 35.4623H95.395V36.5519C95.6823 36.1368 95.9696 35.8514 96.2831 35.6698C96.701 35.4104 97.1451 35.3066 97.5892 35.3066C97.9026 35.3066 98.1899 35.3585 98.4773 35.4882C98.7646 35.6179 98.9736 35.7736 99.1564 35.9811C99.3393 36.1887 99.496 36.474 99.6266 36.8372C99.8878 36.3443 100.254 35.9552 100.645 35.6958C101.063 35.4364 101.507 35.3066 101.978 35.3066C102.422 35.3066 102.813 35.4104 103.153 35.6439C103.493 35.8774 103.728 36.1627 103.911 36.5778C104.067 36.9669 104.146 37.5636 104.146 38.3678V41.8181H103.31V38.3678C103.31 37.6933 103.257 37.2263 103.153 36.9669C103.049 36.7075 102.892 36.5 102.657 36.3443C102.422 36.1887 102.134 36.1108 101.821 36.1108C101.429 36.1108 101.063 36.2146 100.724 36.4481C100.384 36.6816 100.149 36.9929 99.9923 37.382C99.8356 37.7711 99.7572 38.4197 99.7572 39.3276V41.8181H98.9475V38.5753C98.9475 37.823 98.8952 37.3042 98.7907 37.0188C98.6863 36.7334 98.5295 36.5259 98.2944 36.3703C98.0593 36.2146 97.772 36.1108 97.4586 36.1108C97.0929 36.1108 96.7272 36.2146 96.3876 36.4481C96.048 36.6816 95.8129 36.9929 95.6562 37.3561C95.4995 37.7452 95.4211 38.3159 95.4211 39.1201V41.7921H94.6113V35.4623H94.5852Z" fill="#00619D"></path><path d="M105.739 35.4625H106.549V38.4198C106.549 39.1462 106.601 39.6391 106.653 39.8985C106.784 40.2877 106.993 40.599 107.332 40.8065C107.672 41.04 108.064 41.1438 108.508 41.1438C108.978 41.1438 109.344 41.04 109.683 40.8065C109.997 40.599 110.232 40.2877 110.336 39.9504C110.415 39.7169 110.467 39.1981 110.467 38.3939V35.4365H111.303V38.5496C111.303 39.4316 111.198 40.0801 110.989 40.5211C110.78 40.9622 110.467 41.2994 110.075 41.5588C109.657 41.8182 109.135 41.922 108.534 41.922C107.933 41.922 107.385 41.7923 106.967 41.5588C106.549 41.2994 106.235 40.9622 106.026 40.5211C105.817 40.0801 105.713 39.4056 105.713 38.4977V35.4625H105.739Z" fill="#00619D"></path><path d="M113.027 33.0234H113.837V41.7918H113.027V33.0234Z" fill="#00619D"></path><path d="M121.882 35.4623V41.7921H121.072V40.7026C120.733 41.1176 120.341 41.4289 119.923 41.6365C119.505 41.844 119.035 41.9478 118.512 41.9478C117.598 41.9478 116.84 41.6105 116.214 40.962C115.587 40.3134 115.247 39.5092 115.247 38.6013C115.247 37.6933 115.561 36.915 116.214 36.2665C116.867 35.6179 117.624 35.3066 118.538 35.3066C119.061 35.3066 119.531 35.4104 119.949 35.6439C120.367 35.8774 120.733 36.1887 121.072 36.6297V35.4623H121.882ZM118.617 36.0849C118.173 36.0849 117.729 36.1887 117.363 36.4221C116.971 36.6556 116.658 36.9669 116.449 37.3561C116.214 37.7452 116.109 38.1862 116.109 38.6272C116.109 39.0682 116.214 39.5092 116.449 39.8984C116.684 40.3134 116.997 40.6247 117.389 40.8582C117.781 41.0917 118.199 41.1955 118.643 41.1955C119.087 41.1955 119.505 41.0917 119.923 40.8582C120.315 40.6247 120.628 40.3394 120.863 39.9503C121.072 39.5611 121.177 39.146 121.177 38.6532C121.177 37.9268 120.942 37.3042 120.445 36.8113C119.949 36.3184 119.322 36.0849 118.617 36.0849Z" fill="#00619D"></path><path d="M124.442 33.1279H125.252V35.4886H126.558V36.1891H125.252V41.8185H124.442V36.1891H123.319V35.4886H124.442V33.1279Z" fill="#00619D"></path><path d="M130.815 35.3066C131.808 35.3066 132.618 35.6698 133.245 36.3703C133.819 37.0188 134.133 37.7711 134.133 38.6532C134.133 39.5352 133.819 40.3134 133.193 40.962C132.566 41.6105 131.782 41.9478 130.789 41.9478C129.823 41.9478 129.013 41.6105 128.386 40.962C127.759 40.3134 127.446 39.5352 127.446 38.6532C127.446 37.7711 127.733 37.0188 128.334 36.3703C129.013 35.6698 129.823 35.3066 130.815 35.3066ZM130.815 36.1108C130.136 36.1108 129.536 36.3703 129.065 36.8632C128.569 37.3561 128.334 37.9787 128.334 38.6791C128.334 39.1461 128.438 39.5611 128.674 39.9503C128.909 40.3394 129.196 40.6507 129.588 40.8582C129.98 41.0658 130.398 41.1695 130.842 41.1695C131.286 41.1695 131.704 41.0658 132.095 40.8582C132.487 40.6507 132.775 40.3394 133.01 39.9503C133.245 39.5611 133.349 39.1201 133.349 38.6791C133.349 37.9787 133.114 37.3561 132.618 36.8632C132.069 36.3443 131.495 36.1108 130.815 36.1108Z" fill="#00619D"></path><path d="M135.334 35.4627H136.17V36.3966C136.432 36.0334 136.693 35.7481 136.954 35.5924C137.241 35.4108 137.529 35.333 137.816 35.333C138.051 35.333 138.286 35.4108 138.547 35.5405L138.129 36.215C137.947 36.1372 137.816 36.1113 137.685 36.1113C137.424 36.1113 137.137 36.215 136.902 36.4485C136.641 36.682 136.458 37.0192 136.327 37.4862C136.223 37.8494 136.17 38.5757 136.17 39.6653V41.8185H135.334V35.4627Z" fill="#00619D"></path><path d="M142.466 36.1629L141.943 36.7077C141.499 36.2926 141.081 36.0851 140.663 36.0851C140.402 36.0851 140.167 36.1629 139.984 36.3445C139.801 36.5261 139.697 36.7337 139.697 36.9671C139.697 37.1747 139.775 37.3563 139.932 37.5638C140.089 37.7454 140.428 37.9789 140.924 38.2383C141.525 38.5496 141.943 38.8609 142.178 39.1463C142.387 39.4316 142.492 39.7689 142.492 40.1321C142.492 40.6509 142.309 41.0919 141.943 41.4551C141.577 41.8183 141.107 41.9999 140.559 41.9999C140.193 41.9999 139.827 41.922 139.514 41.7664C139.174 41.6107 138.913 41.3773 138.678 41.1178L139.2 40.5471C139.618 41.0141 140.062 41.2476 140.533 41.2476C140.872 41.2476 141.133 41.1438 141.369 40.9363C141.604 40.7287 141.708 40.4693 141.708 40.2099C141.708 39.9764 141.63 39.7689 141.473 39.5873C141.316 39.4057 140.977 39.1722 140.428 38.9128C139.853 38.6274 139.462 38.3161 139.253 38.0308C139.044 37.7454 138.939 37.4081 138.939 37.045C138.939 36.5521 139.096 36.1629 139.435 35.8516C139.775 35.5403 140.193 35.3847 140.689 35.3847C141.29 35.3068 141.865 35.5922 142.466 36.1629Z" fill="#00619D"></path><path d="M152 4.20259C152 6.58925 150.119 8.45707 147.664 8.45707C145.234 8.45707 143.302 6.58925 143.302 4.20259C143.302 1.86782 145.234 0 147.664 0C150.119 0 152 1.86782 152 4.20259ZM144.399 4.20259C144.399 6.07041 145.783 7.54911 147.69 7.54911C149.545 7.54911 150.903 6.07041 150.903 4.22854C150.903 2.36072 149.545 0.856084 147.664 0.856084C145.783 0.856084 144.399 2.36072 144.399 4.20259ZM147.011 6.40766H146.018V2.20507C146.41 2.12724 146.959 2.07536 147.638 2.07536C148.447 2.07536 148.787 2.20507 149.1 2.38666C149.336 2.56825 149.518 2.9055 149.518 3.32057C149.518 3.78752 149.153 4.15071 148.63 4.28042V4.3323C149.048 4.48796 149.283 4.79926 149.414 5.34404C149.545 5.99259 149.623 6.25201 149.727 6.38172H148.683C148.552 6.22607 148.474 5.83694 148.343 5.34404C148.265 4.87709 148.003 4.66955 147.455 4.66955H146.985V6.40766H147.011ZM147.037 4.021H147.507C148.056 4.021 148.474 3.83941 148.474 3.39839C148.474 3.00927 148.186 2.74985 147.559 2.74985C147.298 2.74985 147.115 2.77579 147.011 2.80173V4.021H147.037Z" fill="#00619D"></path></svg>