<svg
  width="21"
  height="21"
  viewBox="0 0 21 21"
  fill="none"
  xmlns="http://www.w3.org/2000/svg"
>
  <path
    fill-rule="evenodd"
    clip-rule="evenodd"
    d="M12.4223 1.47176C13.3714 0.522617 14.6334 -0.000366211 15.9754 -0.000366211C18.7466 -0.000366211 21.0006 2.25365 21.0007 5.02482C21.0007 6.36684 20.4777 7.62878 19.5285 8.57792L15.141 12.9655C14.1918 13.9146 12.9299 14.4376 11.5879 14.4376C10.2465 14.4376 8.98464 13.9152 8.03611 12.9674L9.89085 11.1101C10.7984 12.0163 12.3775 12.0156 13.285 11.1094L17.6725 6.72188C18.1256 6.26814 18.3755 5.66573 18.3755 5.02482C18.3755 3.70137 17.2988 2.62469 15.9754 2.62469C15.3345 2.62469 14.7321 2.87464 14.2783 3.32776L11.8409 5.76524C11.0815 5.46161 10.2556 5.29786 9.41267 5.29786C9.12915 5.29786 8.85159 5.33685 8.57423 5.37582C8.55252 5.37887 8.53082 5.38192 8.50911 5.38495L12.4223 1.47176ZM6.72228 17.6721L9.13675 15.2576C9.90299 15.5789 10.732 15.7501 11.5879 15.75C11.8363 15.75 12.0782 15.7166 12.3202 15.6831C12.3599 15.6776 12.3997 15.6721 12.4395 15.6668L8.57828 19.528C7.6291 20.4772 6.3672 21.0002 5.02518 21.0002C2.25401 21.0002 0 18.7462 0 15.975C0 14.633 0.522942 13.3711 1.47212 12.4219L5.8597 8.03439C7.75802 6.13611 11.0669 6.13672 12.9646 8.03248L11.1099 9.88978C10.2023 8.98357 8.62321 8.98422 7.7157 9.89043L3.32817 14.278C2.87504 14.7317 2.6251 15.3342 2.6251 15.975C2.6251 17.2985 3.70178 18.3752 5.02522 18.3752C5.66609 18.3752 6.26855 18.1252 6.72228 17.6721Z"
    fill="black"
  ></path>
</svg>
