<svg
  width="21"
  height="18"
  viewBox="0 0 21 18"
  fill="none"
  xmlns="http://www.w3.org/2000/svg"
>
  <path
    d="M20.9999 2.27005C20.2189 2.61261 19.3868 2.83967 18.5193 2.94992C19.4118 2.41705 20.0929 1.57968 20.4132 0.57037C19.5811 1.06649 18.6623 1.41693 17.6832 1.61249C16.8931 0.771181 15.767 0.250122 14.5385 0.250122C12.155 0.250122 10.2361 2.18474 10.2361 4.55641C10.2361 4.89766 10.265 5.22578 10.3359 5.53815C6.75671 5.36359 3.58966 3.64816 1.46212 1.03499C1.09068 1.67943 0.872807 2.41705 0.872807 3.2111C0.872807 4.70209 1.64061 6.02377 2.78511 6.78896C2.09342 6.77583 1.41487 6.57502 0.839995 6.25871C0.839995 6.27183 0.839995 6.2889 0.839995 6.30596C0.839995 8.39807 2.3323 10.1358 4.28922 10.5361C3.93879 10.6319 3.55685 10.6779 3.16048 10.6779C2.88486 10.6779 2.60661 10.6621 2.34542 10.6044C2.90323 12.3093 4.4861 13.5627 6.36821 13.6034C4.90347 14.7492 3.04367 15.4396 1.03031 15.4396C0.677246 15.4396 0.338623 15.4238 0 15.3805C1.90705 16.6103 4.16716 17.3125 6.60446 17.3125C14.5267 17.3125 18.8579 10.7501 18.8579 5.06172C18.8579 4.87141 18.8513 4.68766 18.8421 4.50522C19.6966 3.89885 20.4145 3.14154 20.9999 2.27005Z"
    fill="black"
  ></path>
</svg>
