<svg version="1.0" xmlns="http://www.w3.org/2000/svg"
 width="152" height="48" viewBox="0 0 1309.000000 1852.000000"
 preserveAspectRatio="xMidYMid meet">

<g transform="translate(0.000000,1852.000000) scale(0.100000,-0.100000)"
fill="#000000" stroke="none">
<path d="M0 9260 l0 -9260 6545 0 6545 0 0 9260 0 9260 -6545 0 -6545 0 0
-9260z m6994 4865 c648 -69 1236 -311 1744 -718 154 -124 377 -345 491 -487
l84 -105 -253 -3 -254 -2 -86 83 c-228 224 -452 387 -721 526 -1136 590 -2517
375 -3424 -533 -723 -724 -1015 -1755 -780 -2759 232 -993 1013 -1826 1989
-2121 303 -92 548 -128 871 -127 282 0 460 22 730 91 508 129 966 392 1348
775 l117 118 0 280 0 280 -477 982 c-263 541 -480 981 -483 980 -3 -2 -113
-224 -245 -494 l-240 -491 -198 0 -198 0 -102 208 c-95 193 -102 211 -102 267
0 101 67 177 167 191 92 13 172 -39 223 -145 16 -34 31 -61 34 -61 4 0 111
214 240 475 l234 475 197 0 197 0 572 -1189 571 -1189 0 -358 0 -359 -51 -60
c-137 -162 -369 -380 -544 -511 -768 -577 -1767 -794 -2705 -588 -806 177
-1513 643 -1999 1319 -304 422 -510 932 -585 1445 -30 201 -39 361 -32 580 5
210 10 262 42 465 80 502 294 1005 610 1432 530 715 1326 1189 2204 1312 187
27 195 27 455 29 136 1 273 -4 359 -13z m-44 -2377 c-16 -35 -210 -432 -433
-883 l-404 -820 -197 -3 c-123 -1 -197 1 -194 7 1 5 197 404 433 885 l430 875
197 1 197 0 -29 -62z m-1623 -1270 c49 -45 14 -128 -54 -128 -44 0 -73 30 -73
75 0 68 77 101 127 53z m23 -723 l0 -395 -80 0 -80 0 0 395 0 395 80 0 80 0 0
-395z m2430 -3629 c0 -391 4 -717 9 -724 4 -7 39 -17 76 -23 38 -5 72 -14 76
-20 9 -15 -1 -49 -15 -49 -44 -1 -272 -52 -311 -69 -26 -11 -58 -21 -71 -21
-23 0 -24 3 -24 66 0 36 -3 64 -7 62 -5 -2 -41 -20 -80 -41 -210 -108 -441
-83 -590 64 -106 105 -147 222 -141 403 3 104 6 116 41 190 28 59 55 96 110
151 114 114 216 150 404 143 91 -3 106 -6 174 -40 40 -20 75 -35 77 -34 1 2 3
88 3 192 1 263 -14 317 -90 330 -66 11 -71 14 -71 44 0 31 14 40 68 40 20 1
105 16 187 34 102 23 154 30 163 23 9 -7 12 -164 12 -721z m-4990 691 c57 -30
83 -77 77 -140 -7 -83 -75 -147 -155 -147 -85 0 -152 73 -152 165 0 119 117
182 230 122z m6792 -704 c2 -401 7 -736 11 -745 11 -21 28 -28 101 -38 61 -9
76 -20 76 -55 0 -20 -6 -20 -315 -21 l-315 0 0 27 c0 30 15 37 113 54 75 12
72 -13 72 635 0 316 -3 591 -8 611 -8 41 -37 59 -92 59 -53 0 -65 9 -65 45 0
30 3 33 43 39 71 11 169 44 237 80 37 19 81 34 102 35 l37 1 3 -727z m-4382
658 l0 -49 -72 -17 c-93 -21 -140 -44 -154 -75 -8 -18 -9 -63 -3 -155 4 -71
13 -251 19 -400 16 -430 31 -659 42 -673 6 -6 49 -24 97 -38 131 -38 131 -38
131 -80 l0 -37 -117 9 c-65 5 -245 9 -400 8 l-281 -1 5 36 c4 20 10 39 15 42
5 3 45 13 88 23 58 12 84 23 95 39 12 18 15 62 15 255 0 199 -25 831 -34 839
-2 3 -288 -653 -384 -882 -25 -60 -66 -168 -91 -240 l-46 -130 -50 0 -49 0
-51 135 c-29 74 -91 221 -139 325 -49 105 -147 318 -219 475 -71 157 -134 289
-139 295 -4 5 -8 -92 -9 -215 -1 -124 -4 -337 -8 -475 -3 -137 -3 -272 1 -299
11 -74 47 -104 163 -136 l60 -17 3 -47 3 -46 -58 7 c-32 5 -165 8 -296 8
l-238 0 3 39 3 39 61 13 c134 27 151 55 165 269 31 495 40 1020 17 1040 -14
12 -72 34 -118 45 -95 21 -90 17 -90 66 l0 44 133 0 c74 0 196 -3 271 -7 l138
-6 22 -36 c13 -20 51 -99 86 -176 106 -236 382 -830 390 -838 10 -11 188 375
310 673 66 161 154 358 166 369 4 5 232 18 507 29 l37 2 0 -49z m-2361 -926
c-1 -267 0 -487 3 -490 3 -3 42 -12 86 -21 l82 -17 0 -32 0 -32 -310 1 -310 1
0 36 0 36 76 11 c45 6 83 17 93 27 14 14 16 55 16 351 l0 336 -23 18 c-13 11
-44 22 -70 25 -77 11 -82 14 -82 45 0 23 5 31 23 34 115 22 149 32 196 54 29
15 72 43 95 64 34 31 49 37 84 38 l43 0 -2 -485z m3321 406 c209 -65 350 -264
350 -493 -1 -258 -145 -453 -381 -514 -84 -22 -244 -22 -328 0 -128 33 -270
134 -328 233 -71 122 -88 314 -40 452 62 178 207 302 392 337 94 18 251 11
335 -15z m2533 14 c88 -18 144 -47 212 -107 68 -61 123 -166 132 -252 l6 -58
-358 8 -358 7 6 -74 c13 -139 52 -226 137 -302 73 -65 144 -90 240 -84 81 5
160 31 222 72 l39 26 36 -27 36 -28 -64 -60 c-117 -111 -242 -159 -414 -159
-244 0 -408 116 -485 343 -39 116 -25 310 31 427 31 65 142 178 213 218 110
62 235 79 369 50z m1748 -5 c89 -17 158 -42 163 -59 3 -9 12 -67 21 -130 17
-128 16 -131 -45 -131 -32 1 -38 5 -70 61 -76 133 -144 182 -255 182 -178 0
-242 -172 -92 -249 17 -9 87 -32 156 -51 217 -59 308 -115 351 -215 26 -60 30
-152 10 -214 -50 -150 -181 -226 -395 -226 -167 0 -356 46 -369 91 -4 12 -36
252 -36 268 0 2 19 3 43 3 42 -1 42 -1 87 -76 76 -128 163 -190 282 -201 71
-7 137 22 173 75 27 39 33 98 15 132 -19 35 -93 68 -235 105 -160 43 -215 67
-267 122 -59 61 -81 123 -76 219 8 149 83 242 233 290 49 15 232 18 306 4z
m-5489 -1627 c3 -207 3 -208 26 -211 34 -5 26 -19 -15 -27 -21 -3 -48 -9 -60
-12 -17 -4 -23 -1 -23 12 0 9 -5 14 -12 11 -7 -2 -30 -10 -50 -17 -106 -34
-205 75 -168 185 14 44 72 96 108 98 46 2 87 -3 97 -13 19 -18 25 -8 25 44 0
71 -8 94 -33 101 -42 11 1 29 80 35 l23 1 2 -207z m192 191 c20 -20 20 -27 -3
-55 -16 -21 -22 -22 -45 -11 -17 8 -26 19 -26 35 0 44 43 62 74 31z m868 -196
c3 -212 3 -213 26 -216 12 -2 22 -9 22 -15 0 -8 -26 -12 -85 -11 -94 0 -111 6
-66 22 l31 11 0 168 c0 92 -4 173 -8 179 -4 6 -15 13 -24 17 -10 3 -18 10 -18
14 0 7 80 38 107 42 10 1 13 -50 15 -211z m517 197 c5 -6 12 -31 15 -57 7 -43
5 -48 -12 -48 -12 0 -24 11 -32 30 -32 78 -150 78 -150 0 0 -36 29 -60 108
-88 97 -36 130 -81 119 -164 -13 -94 -126 -143 -247 -107 -39 12 -50 33 -50
95 0 35 34 31 50 -5 20 -49 46 -66 102 -66 40 0 53 5 69 24 42 52 17 90 -88
132 -80 31 -99 45 -117 84 -30 64 -12 129 47 166 26 16 45 19 104 17 40 -2 76
-8 82 -13z m211 1 c28 -35 -11 -93 -47 -70 -22 14 -29 64 -11 75 20 13 44 11
58 -5z m1190 -200 c0 -213 0 -215 22 -218 12 -2 23 -7 25 -13 2 -6 -32 -10
-87 -10 -88 0 -115 8 -65 21 l25 6 0 184 c0 177 -1 184 -20 184 -54 0 22 51
88 59 9 1 12 -48 12 -213z m-4045 53 c60 -131 71 -149 81 -134 7 10 39 78 70
151 l56 134 80 0 c59 0 79 -3 76 -12 -3 -7 -13 -15 -24 -17 -40 -7 -43 -18
-38 -139 3 -65 7 -145 10 -178 5 -58 7 -62 35 -70 28 -8 43 -30 19 -28 -5 1
-55 2 -110 3 -102 1 -124 11 -70 30 l30 10 -1 123 c-2 202 -5 204 -71 47 -32
-73 -64 -152 -71 -174 -16 -46 -42 -57 -52 -23 -10 34 -136 311 -147 323 -5 6
-7 -51 -6 -140 l3 -150 32 -15 c43 -20 44 -45 2 -36 -17 3 -56 6 -85 6 -60 0
-69 10 -25 27 28 10 29 12 36 104 3 52 5 134 3 184 -3 85 -4 89 -27 95 -14 3
-26 11 -29 18 -3 9 18 12 76 12 l79 0 68 -151z m4575 16 c0 -33 2 -35 35 -35
24 0 35 -5 35 -15 0 -10 -11 -15 -35 -15 l-35 0 0 -100 c0 -81 3 -102 15 -106
8 -4 22 -1 29 5 20 17 33 -6 14 -25 -25 -25 -80 -28 -108 -6 -23 18 -25 28
-28 126 -4 96 -6 106 -23 106 -26 0 -24 15 4 27 13 6 35 25 48 42 32 41 49 39
49 -4z m-3310 -144 c0 -133 1 -140 20 -143 12 -2 19 -7 18 -12 -5 -14 -168
-13 -168 1 0 6 10 13 23 15 21 3 22 7 22 108 0 101 -1 105 -22 108 -34 5 -28
19 11 26 19 4 39 13 46 21 7 8 21 15 31 15 18 0 19 -10 19 -139z m1600 12 c-3
-159 -4 -151 20 -155 12 -2 19 -7 18 -12 -5 -14 -168 -13 -168 1 0 6 10 13 23
15 21 3 22 8 25 105 3 102 3 102 -23 109 -28 7 -34 24 -7 24 9 0 31 9 47 19
17 11 38 20 49 20 17 1 18 -8 16 -126z m190 102 l0 -25 33 20 c43 27 96 25
138 -3 l34 -23 28 20 c40 29 119 29 147 0 28 -28 41 -87 34 -150 -7 -64 0 -89
29 -100 15 -5 0 -9 -52 -11 -80 -4 -94 0 -67 20 16 11 18 26 15 110 -4 105
-12 120 -59 120 -57 0 -70 -24 -70 -130 0 -91 1 -94 25 -103 14 -5 25 -12 25
-15 0 -3 -38 -5 -85 -5 -50 0 -85 4 -85 10 0 6 9 10 20 10 18 0 20 7 21 63 2
92 -2 140 -13 155 -15 17 -78 15 -100 -5 -15 -13 -18 -32 -18 -110 0 -86 2
-95 20 -100 45 -12 15 -23 -60 -23 -44 0 -80 4 -80 9 0 5 10 11 23 13 21 3 22
7 22 98 0 89 -1 96 -22 105 -13 5 -23 12 -23 15 0 5 97 55 113 58 4 1 7 -9 7
-23z m2110 -6 l0 -30 23 27 c19 21 29 26 49 21 31 -8 42 -31 28 -58 -11 -20
-36 -24 -60 -9 -29 18 -40 -9 -40 -101 l0 -89 30 -6 c59 -12 29 -24 -60 -24
-53 0 -90 4 -90 10 0 6 7 10 15 10 8 0 19 9 25 19 20 38 8 181 -16 181 -28 0
-23 20 10 35 19 9 40 23 47 31 20 24 39 16 39 -17z m-4529 6 c30 -16 69 -68
69 -92 0 -10 -27 -13 -100 -13 l-100 0 0 -27 c0 -39 35 -91 65 -99 25 -6 59
-3 104 12 34 10 23 -15 -19 -43 -40 -28 -116 -31 -161 -8 -68 36 -92 147 -46
216 41 62 125 86 188 54z m979 -10 c26 -23 26 -51 0 -65 -17 -9 -25 -6 -45 14
-14 14 -25 30 -25 36 0 5 -15 10 -34 10 -47 0 -76 -37 -76 -97 0 -50 12 -80
44 -105 29 -24 87 -23 120 3 30 23 47 18 30 -9 -22 -34 -76 -62 -121 -62 -93
0 -153 55 -153 141 0 93 85 164 187 156 32 -2 61 -11 73 -22z m301 -1 c16 -15
19 -32 19 -115 0 -95 11 -130 31 -98 11 19 22 4 14 -20 -13 -43 -83 -48 -98
-6 -6 14 -10 14 -35 -5 -84 -62 -191 -10 -137 67 8 12 47 34 86 49 l71 28 -5
44 c-6 51 -18 63 -56 53 -18 -5 -29 -17 -35 -39 -7 -20 -20 -35 -38 -43 -34
-14 -42 -8 -34 25 17 68 163 109 217 60z m2441 -1 c14 -15 19 -39 22 -116 2
-54 6 -101 10 -104 3 -3 12 0 21 7 13 10 15 9 15 -9 0 -30 -41 -54 -72 -42
-14 5 -28 17 -32 27 -6 15 -9 15 -30 -5 -52 -49 -156 -33 -156 25 0 34 39 67
110 94 59 22 60 23 60 61 0 51 -21 71 -60 58 -19 -7 -31 -19 -35 -38 -5 -25
-38 -51 -65 -51 -21 0 -9 40 20 67 55 52 152 65 192 26z m564 8 c82 -37 107
-151 50 -226 -66 -85 -231 -67 -272 31 -32 77 -5 155 66 192 53 27 101 28 156
3z m573 10 c17 -5 28 -17 34 -40 10 -41 -8 -68 -25 -37 -29 51 -87 73 -116 44
-31 -31 -8 -55 75 -77 96 -26 117 -136 32 -172 -32 -13 -144 -8 -158 7 -13 14
-21 84 -10 84 5 0 27 -18 48 -40 43 -45 77 -52 107 -19 27 29 9 50 -62 71 -67
21 -94 47 -94 92 0 75 75 114 169 87z m-1839 -114 c0 -75 4 -117 12 -125 20
-20 67 -14 94 13 23 23 25 31 22 107 -3 76 -5 83 -26 88 -45 10 -26 25 35 28
l62 3 3 -123 c3 -109 5 -123 20 -123 34 0 14 -20 -31 -32 -65 -17 -71 -16 -71
12 l0 24 -36 -24 c-38 -26 -91 -32 -124 -15 -27 15 -41 69 -39 152 3 77 -3 98
-27 98 -8 0 -14 7 -14 15 0 12 13 15 60 15 l60 0 0 -113z"/>
<path d="M7164 6146 c-106 -49 -167 -178 -168 -356 -1 -157 25 -233 107 -315
49 -48 74 -65 121 -79 82 -26 176 -18 246 20 l53 29 -7 250 c-8 301 -16 338
-84 406 -73 73 -172 90 -268 45z"/>
<path d="M5878 6186 c-82 -29 -130 -85 -155 -179 -32 -119 -26 -430 10 -535
38 -109 114 -163 231 -164 153 -1 227 100 247 341 17 195 -4 359 -55 440 -57
89 -179 132 -278 97z"/>
<path d="M8485 6184 c-70 -36 -123 -114 -139 -206 l-7 -38 217 0 217 0 -6 51
c-15 123 -101 209 -209 209 -24 0 -56 -7 -73 -16z"/>
<path d="M4772 4643 c-41 -16 -55 -126 -22 -180 22 -36 74 -52 109 -34 18 10
21 21 21 75 0 117 -39 167 -108 139z"/>
<path d="M4415 4635 c-42 -41 -34 -55 35 -55 53 0 60 2 60 20 0 24 -34 60 -55
60 -9 0 -27 -11 -40 -25z"/>
<path d="M5702 4509 c-51 -33 -56 -89 -8 -89 33 0 56 31 56 73 0 43 -4 44 -48
16z"/>
<path d="M8165 4518 c-31 -17 -65 -50 -65 -64 0 -7 7 -19 15 -28 13 -12 21
-13 41 -4 26 12 38 40 32 81 -3 22 -6 24 -23 15z"/>
<path d="M8703 4650 c-33 -13 -43 -42 -43 -123 0 -60 4 -79 21 -101 28 -36 70
-35 99 2 19 24 21 37 18 109 -3 85 -12 105 -53 116 -11 3 -30 2 -42 -3z"/>
</g>
</svg>
